<?xml version="1.0" standalone="no"?><svg xmlns="http://www.w3.org/2000/svg" viewBox="0 0 1440 320"><path fill="#980290" fill-opacity="1" d="M0,32L13.3,32C26.7,32,53,32,80,42.7C106.7,53,133,75,160,85.3C186.7,96,213,96,240,117.3C266.7,139,293,181,320,170.7C346.7,160,373,96,400,74.7C426.7,53,453,75,480,106.7C506.7,139,533,181,560,208C586.7,235,613,245,640,256C666.7,267,693,277,720,266.7C746.7,256,773,224,800,213.3C826.7,203,853,213,880,197.3C906.7,181,933,139,960,133.3C986.7,128,1013,160,1040,170.7C1066.7,181,1093,171,1120,186.7C1146.7,203,1173,245,1200,256C1226.7,267,1253,245,1280,224C1306.7,203,1333,181,1360,176C1386.7,171,1413,181,1427,186.7L1440,192L1440,320L1426.7,320C1413.3,320,1387,320,1360,320C1333.3,320,1307,320,1280,320C1253.3,320,1227,320,1200,320C1173.3,320,1147,320,1120,320C1093.3,320,1067,320,1040,320C1013.3,320,987,320,960,320C933.3,320,907,320,880,320C853.3,320,827,320,800,320C773.3,320,747,320,720,320C693.3,320,667,320,640,320C613.3,320,587,320,560,320C533.3,320,507,320,480,320C453.3,320,427,320,400,320C373.3,320,347,320,320,320C293.3,320,267,320,240,320C213.3,320,187,320,160,320C133.3,320,107,320,80,320C53.3,320,27,320,13,320L0,320Z"></path></svg>