<svg width="48" height="61" viewBox="0 0 48 61" fill="none" xmlns="http://www.w3.org/2000/svg">
<path d="M6 61C4.35 61 2.937 60.4022 1.761 59.2066C0.585005 58.011 -0.00199491 56.5755 5.09338e-06 54.9V18.3C5.09338e-06 16.6225 0.588004 15.1859 1.764 13.9903C2.94 12.7947 4.352 12.198 6 12.2H12C12 8.845 13.175 5.97292 15.525 3.58375C17.875 1.19458 20.7 0 24 0C27.3 0 30.125 1.19458 32.475 3.58375C34.825 5.97292 36 8.845 36 12.2H42C43.65 12.2 45.063 12.7978 46.239 13.9934C47.415 15.189 48.002 16.6245 48 18.3V54.9C48 56.5775 47.412 58.014 46.236 59.2096C45.06 60.4052 43.648 61.002 42 61H6ZM6 54.9H42V18.3H36V24.4C36 25.2642 35.712 25.989 35.136 26.5746C34.56 27.1602 33.848 27.452 33 27.45C32.15 27.45 31.437 27.1572 30.861 26.5716C30.285 25.986 29.998 25.2621 30 24.4V18.3H18V24.4C18 25.2642 17.712 25.989 17.136 26.5746C16.56 27.1602 15.848 27.452 15 27.45C14.15 27.45 13.437 27.1572 12.861 26.5716C12.285 25.986 11.998 25.2621 12 24.4V18.3H6V54.9ZM18 12.2H30C30 10.5225 29.412 9.08595 28.236 7.89035C27.06 6.69475 25.648 6.09797 24 6.1C22.35 6.1 20.937 6.6978 19.761 7.8934C18.585 9.089 17.998 10.5245 18 12.2Z" fill="#903292"/>
</svg>
