<svg width="237" height="200" viewBox="0 0 237 200" fill="none" xmlns="http://www.w3.org/2000/svg">
<circle cx="117.845" cy="99.5138" r="99.5138" fill="#B239B5"/>
<g clip-path="url(#clip0_32_21)">
<path d="M118.5 135.522C107.637 135.522 98.3385 131.654 90.6031 123.919C82.8677 116.184 79 106.885 79 96.0221C79 85.1596 82.8677 75.8606 90.6031 68.1252C98.3385 60.3898 107.637 56.5221 118.5 56.5221C129.363 56.5221 138.661 60.3898 146.397 68.1252C154.132 75.8606 158 85.1596 158 96.0221C158 106.885 154.132 116.184 146.397 123.919C138.661 131.654 129.363 135.522 118.5 135.522ZM59.25 214.522C53.8187 214.522 49.1709 212.59 45.3065 208.725C41.4355 204.854 39.5 200.203 39.5 194.772V186.872C39.5 181.276 40.9418 176.131 43.8253 171.437C46.7022 166.75 50.5271 163.172 55.3 160.703C65.5042 155.601 75.8729 151.773 86.4062 149.219C96.9396 146.671 107.637 145.397 118.5 145.397C129.363 145.397 140.06 146.671 150.594 149.219C161.127 151.773 171.496 155.601 181.7 160.703C186.473 163.172 190.298 166.75 193.175 171.437C196.058 176.131 197.5 181.276 197.5 186.872V194.772C197.5 200.203 195.568 204.854 191.703 208.725C187.832 212.59 183.181 214.522 177.75 214.522H59.25Z" fill="white"/>
</g>
<defs>
<clipPath id="clip0_32_21">
<rect width="237" height="142" fill="white" transform="translate(0 57)"/>
</clipPath>
</defs>
</svg>
