<svg width="36" height="36" viewBox="0 0 36 36" fill="none" xmlns="http://www.w3.org/2000/svg">
<path d="M27.4921 33.7498C26.1196 33.7498 24.1917 33.2534 21.3046 31.6405C17.7939 29.6717 15.0784 27.8541 11.5867 24.3716C8.22016 21.0071 6.58188 18.8288 4.28899 14.6565C1.69868 9.94554 2.14024 7.47616 2.63384 6.42077C3.22165 5.15937 4.08931 4.40491 5.21079 3.65609C5.84779 3.23874 6.52189 2.88097 7.22454 2.58734C7.29485 2.5571 7.36024 2.52827 7.4186 2.50226C7.76665 2.34546 8.29399 2.10851 8.96196 2.36163C9.40774 2.52898 9.80571 2.8714 10.4287 3.48663C11.7063 4.74663 13.4521 7.5528 14.0962 8.93093C14.5286 9.85976 14.8148 10.4729 14.8155 11.1605C14.8155 11.9656 14.4105 12.5865 13.919 13.2566C13.8269 13.3824 13.7355 13.5026 13.6469 13.6194C13.1118 14.3225 12.9944 14.5257 13.0717 14.8885C13.2285 15.6176 14.3978 17.7882 16.3195 19.7056C18.2411 21.623 20.3491 22.7185 21.081 22.8746C21.4593 22.9555 21.6667 22.8331 22.3924 22.2791C22.4964 22.1996 22.6033 22.1173 22.7151 22.0351C23.4646 21.4775 24.0567 21.083 24.8427 21.083H24.847C25.5311 21.083 26.1168 21.3798 27.0871 21.8691C28.3527 22.5076 31.2433 24.2309 32.511 25.5099C33.1277 26.1315 33.4715 26.528 33.6395 26.9731C33.8927 27.6432 33.6543 28.1684 33.4989 28.52C33.4729 28.5784 33.4441 28.6423 33.4138 28.7134C33.1179 29.4148 32.758 30.0874 32.3388 30.7229C31.5913 31.8409 30.8341 32.7064 29.5699 33.2949C28.9207 33.602 28.2102 33.7575 27.4921 33.7498Z" fill="black"/>
</svg>
