<svg width="49" height="49" viewBox="0 0 49 49" fill="none" xmlns="http://www.w3.org/2000/svg">
<path d="M14.5 48.3333C13.1708 48.3333 12.0326 47.8597 11.0852 46.9123C10.1379 45.965 9.66506 44.8276 9.66667 43.5C9.66667 42.1708 10.1403 41.0326 11.0877 40.0853C12.035 39.1379 13.1724 38.6651 14.5 38.6667C15.8292 38.6667 16.9674 39.1403 17.9148 40.0877C18.8621 41.035 19.3349 42.1725 19.3333 43.5C19.3333 44.8292 18.8597 45.9674 17.9123 46.9148C16.965 47.8621 15.8276 48.335 14.5 48.3333ZM38.6667 48.3333C37.3375 48.3333 36.1993 47.8597 35.2519 46.9123C34.3046 45.965 33.8317 44.8276 33.8333 43.5C33.8333 42.1708 34.307 41.0326 35.2543 40.0853C36.2017 39.1379 37.3391 38.6651 38.6667 38.6667C39.9958 38.6667 41.1341 39.1403 42.0814 40.0877C43.0288 41.035 43.5016 42.1725 43.5 43.5C43.5 44.8292 43.0263 45.9674 42.079 46.9148C41.1317 47.8621 39.9942 48.335 38.6667 48.3333ZM12.4458 9.66667L18.2458 21.75H35.1625L41.8083 9.66667H12.4458ZM14.5 36.25C12.6875 36.25 11.3181 35.4541 10.3917 33.8623C9.46528 32.2706 9.425 30.6901 10.2708 29.1208L13.5333 23.2L4.83333 4.83334H2.35625C1.67153 4.83334 1.10764 4.60134 0.664583 4.13734C0.221528 3.67334 0 3.09979 0 2.41668C0 1.73195 0.232 1.15759 0.696 0.693592C1.16 0.229592 1.73356 -0.00160275 2.41667 8.36217e-06H6.34375C6.78681 8.36217e-06 7.20972 0.120842 7.6125 0.362509C8.01528 0.604175 8.31736 0.946536 8.51875 1.38959L10.15 4.83334H45.7958C46.8833 4.83334 47.6285 5.23612 48.0312 6.04168C48.434 6.84723 48.4139 7.69306 47.9708 8.57918L39.3917 24.0458C38.9486 24.8514 38.3646 25.4757 37.6396 25.9188C36.9146 26.3618 36.0889 26.5833 35.1625 26.5833H17.1583L14.5 31.4167H41.1437C41.8285 31.4167 42.3924 31.6487 42.8354 32.1127C43.2785 32.5767 43.5 33.1502 43.5 33.8333C43.5 34.5181 43.268 35.0924 42.804 35.5564C42.34 36.0204 41.7664 36.2516 41.0833 36.25H14.5Z" fill="#741B76"/>
<path d="M12.4458 9.66667L18.2458 21.75H35.1625L41.8083 9.66667H12.4458Z" fill="#741B76"/>
</svg>
