<svg width="43" height="50" viewBox="0 0 43 50" fill="none" xmlns="http://www.w3.org/2000/svg">
<g clip-path="url(#clip0_61_72)">
<path d="M31.8669 18.0037C35.0042 20.3046 38.8476 21.6584 42.9987 21.6584V13.4636C42.213 13.4637 41.4295 13.3796 40.6609 13.2125V19.663C36.5102 19.663 32.6672 18.3094 29.5292 16.0087V32.7322C29.5292 41.0982 22.9187 47.8796 14.7648 47.8796C11.7224 47.8796 8.89445 46.936 6.54541 45.3175C9.22653 48.1301 12.9655 49.8748 17.1019 49.8748C25.2565 49.8748 31.8672 43.0934 31.8672 34.727V18.0037H31.8669ZM34.7509 9.73615C33.1475 7.93908 32.0946 5.61667 31.8669 3.04908V1.99512H29.6515C30.2092 5.25839 32.1114 8.04632 34.7509 9.73615ZM11.7027 38.8979C10.8069 37.693 10.3227 36.2187 10.3249 34.703C10.3249 30.8768 13.3485 27.7744 17.0789 27.7744C17.774 27.7741 18.465 27.8836 19.1276 28.0991V19.721C18.3533 19.6122 17.5719 19.5658 16.7908 19.5829V26.1039C16.1279 25.8882 15.4365 25.7788 14.7411 25.7794C11.0109 25.7794 7.98742 28.8815 7.98742 32.7082C7.98742 35.4141 9.49864 37.7567 11.7027 38.8979Z" fill="#FF004F"/>
<path d="M29.5292 16.0086C32.6673 18.3093 36.51 19.6629 40.6608 19.6629V13.2124C38.3439 12.706 36.2928 11.4639 34.7507 9.73615C32.111 8.04615 30.2091 5.25822 29.6515 1.99512H23.8325V34.7267C23.8193 38.5425 20.8009 41.6322 17.0785 41.6322C14.8852 41.6322 12.9364 40.5596 11.7023 38.8977C9.49858 37.7567 7.9872 35.4139 7.9872 32.7084C7.9872 28.882 11.0106 25.7796 14.7409 25.7796C15.4556 25.7796 16.1444 25.8937 16.7906 26.1041V19.583C8.77984 19.7529 2.3374 26.468 2.3374 34.7268C2.3374 38.8496 3.94167 42.587 6.54552 45.3179C8.89457 46.936 11.7223 47.8799 14.7649 47.8799C22.9189 47.8799 29.5294 41.098 29.5294 32.7322V16.0087L29.5292 16.0086Z" fill="black"/>
<path d="M40.661 13.2121V11.4683C38.5717 11.4715 36.5236 10.8712 34.7509 9.73604C36.3201 11.4985 38.3863 12.7138 40.661 13.2124V13.2121ZM29.6515 1.99483C29.5984 1.68304 29.5576 1.36916 29.5292 1.05397V0H21.4946V32.7319C21.4819 36.5474 18.4635 39.6371 14.7409 39.6371C13.6856 39.6387 12.6448 39.3855 11.7024 38.8979C12.9364 40.5595 14.8852 41.6319 17.0786 41.6319C20.8007 41.6319 23.8195 38.5426 23.8326 34.7267V1.995H29.6515V1.99483ZM16.7912 19.5828V17.726C16.1198 17.6318 15.4429 17.5847 14.7653 17.585C6.61041 17.585 0 24.3667 0 32.7319C0 37.9766 2.59797 42.5986 6.54591 45.3174C3.94206 42.5867 2.33779 38.8491 2.33779 34.7266C2.33779 26.4679 8.78006 19.7526 16.7912 19.5828Z" fill="#00F2EA"/>
</g>
<defs>
<clipPath id="clip0_61_72">
<rect width="43" height="50" fill="white"/>
</clipPath>
</defs>
</svg>
