<svg width="131" height="43" viewBox="0 0 131 43" fill="none" xmlns="http://www.w3.org/2000/svg">
<g clip-path="url(#clip0_76_422)">
<path d="M67.75 13.6917C67.6753 19.6579 73.0018 22.987 77.0142 24.9665C81.1366 26.9974 82.5213 28.2998 82.5049 30.1162C82.4742 32.8956 79.2166 34.1224 76.1683 34.1701C70.85 34.2535 67.7577 32.7164 65.2994 31.5538L63.3835 40.6299C65.85 41.7806 70.4171 42.7841 75.1531 42.8281C86.2701 42.8281 93.5432 37.2723 93.5826 28.6583C93.6261 17.726 78.6466 17.1209 78.7489 12.2344C78.7842 10.7527 80.1807 9.17156 83.2408 8.76954C84.7555 8.56645 88.9367 8.41103 93.6773 10.6211L95.5379 1.8398C92.9885 0.900017 89.712 0.00012207 85.6326 0.00012207C75.1689 0.00012207 67.8094 5.63157 67.75 13.6917ZM113.416 0.756508C111.386 0.756508 109.676 1.95533 108.912 3.795L93.032 42.1831H104.141L106.352 35.9979H119.926L121.209 42.1831H131L122.456 0.756508H113.416ZM114.97 11.9474L118.176 27.5035H109.396L114.97 11.9474ZM54.2811 0.757027L45.5245 42.1826H56.1105L64.8629 0.755993H54.2811M38.6209 0.755993L27.6026 28.9531L23.1455 4.97828C22.6226 2.30192 20.5573 0.756508 18.2638 0.756508H0.252277L0 1.95947C3.69768 2.77181 7.89889 4.08202 10.4442 5.48392C12.0019 6.34029 12.446 7.08891 12.9577 9.12389L21.3996 42.1831H32.5863L49.737 0.756508L38.6209 0.755993Z" fill="url(#paint0_linear_76_422)"/>
</g>
<defs>
<linearGradient id="paint0_linear_76_422" x1="6022.59" y1="128.741" x2="6148.1" y2="-4269.67" gradientUnits="userSpaceOnUse">
<stop stop-color="#222357"/>
<stop offset="1" stop-color="#254AA5"/>
</linearGradient>
<clipPath id="clip0_76_422">
<rect width="131" height="43" fill="white"/>
</clipPath>
</defs>
</svg>
