<svg width="39" height="39" viewBox="0 0 39 39" fill="none" xmlns="http://www.w3.org/2000/svg">
<g clip-path="url(#clip0_61_93)">
<path d="M9.25 39C8.35625 39 7.59088 38.6815 6.95388 38.0445C6.31688 37.4075 5.99892 36.6427 6 35.75V16.25C6 15.3563 6.3185 14.5909 6.9555 13.9539C7.5925 13.3169 8.35734 12.9989 9.25 13H35.25C36.1438 13 36.9091 13.3185 37.5461 13.9555C38.1831 14.5925 38.5011 15.3573 38.5 16.25V35.75C38.5 36.6438 38.1815 37.4091 37.5445 38.0461C36.9075 38.6831 36.1427 39.0011 35.25 39H9.25ZM22.25 27.625L9.25 19.5V35.75H35.25V19.5L22.25 27.625ZM22.25 24.375L35.25 16.25H9.25L22.25 24.375ZM9.25 19.5V16.25V35.75V19.5Z" fill="black"/>
</g>
<defs>
<clipPath id="clip0_61_93">
<rect width="39" height="39" fill="white"/>
</clipPath>
</defs>
</svg>
