<svg width="37" height="47" viewBox="0 0 37 47" fill="none" xmlns="http://www.w3.org/2000/svg">
<path d="M2.31251 39.95C1.6573 39.95 1.1077 39.7244 0.663696 39.2732C0.219696 38.822 -0.00153366 38.2643 8.00171e-06 37.6C8.00171e-06 36.9342 0.222008 36.3757 0.666008 35.9245C1.11001 35.4733 1.65884 35.2484 2.31251 35.25H4.62501V18.8C4.62501 15.5492 5.58855 12.6602 7.51563 10.1332C9.44271 7.60617 11.9479 5.95177 15.0313 5.17V3.52501C15.0313 2.54584 15.3689 1.71316 16.0441 1.02696C16.7194 0.340755 17.538 -0.00156131 18.5 5.35307e-06C19.4635 5.35307e-06 20.2829 0.343105 20.9582 1.02931C21.6334 1.71551 21.9703 2.54741 21.9688 3.52501V5.17C25.0521 5.95334 27.5573 7.60852 29.4844 10.1356C31.4115 12.6626 32.375 15.5507 32.375 18.8V35.25H34.6875C35.3427 35.25 35.8923 35.4756 36.3363 35.9268C36.7803 36.378 37.0015 36.9357 37 37.6C37 38.2658 36.778 38.8243 36.334 39.2755C35.89 39.7267 35.3412 39.9516 34.6875 39.95H2.31251ZM18.5 47C17.2281 47 16.1389 46.5394 15.2324 45.6182C14.3259 44.697 13.8735 43.5909 13.875 42.3H23.125C23.125 43.5925 22.6717 44.6993 21.7652 45.6205C20.8587 46.5417 19.7703 47.0016 18.5 47ZM9.25 35.25H27.75V18.8C27.75 16.215 26.8443 14.0021 25.0328 12.1613C23.2214 10.3204 21.0437 9.4 18.5 9.4C15.9563 9.4 13.7786 10.3204 11.9672 12.1613C10.1557 14.0021 9.25 16.215 9.25 18.8V35.25Z" fill="black"/>
</svg>
