<svg width="31" height="31" viewBox="0 0 31 31" fill="none" xmlns="http://www.w3.org/2000/svg">
<path d="M16.481 1.75102L19.7408 9.18617C19.8634 9.46599 20.0589 9.70776 20.3068 9.88626C20.5548 10.0648 20.8461 10.1734 21.1503 10.2009L29.0917 10.913C29.9902 11.0438 30.3486 12.1457 29.6971 12.7802L23.7151 17.8056C23.2307 18.2125 23.0103 18.8519 23.1435 19.4695L24.8824 27.6094C25.035 28.503 24.0978 29.186 23.2937 28.7622L16.3623 24.7031C16.1009 24.5497 15.8032 24.4688 15.5001 24.4688C15.197 24.4688 14.8993 24.5497 14.6379 24.7031L7.7065 28.7598C6.90486 29.1812 5.96518 28.5006 6.11775 27.607L7.85666 19.467C7.98744 18.8495 7.76947 18.2101 7.2851 17.8032L1.30064 12.7827C0.651581 12.1505 1.01002 11.0462 1.90611 10.9154L9.84744 10.2034C10.1517 10.1759 10.443 10.0672 10.6909 9.88868C10.9389 9.71019 11.1344 9.46841 11.257 9.18859L14.5168 1.75344C14.9213 0.939688 16.0789 0.939688 16.481 1.75102Z" fill="#FDD835"/>
<path d="M16.2434 9.63176L15.6913 4.15348C15.6695 3.84832 15.6065 3.3252 16.0957 3.3252C16.4832 3.3252 16.6939 4.13168 16.6939 4.13168L18.3505 8.52981C18.9753 10.2033 18.7186 10.7773 18.1156 11.1164C17.4229 11.5039 16.4009 11.2011 16.2434 9.63176Z" fill="#FFFF8D"/>
<path d="M23.0754 17.3188L27.8272 13.6109C28.0621 13.4147 28.4859 13.1023 28.1469 12.7463C27.878 12.4653 27.1515 12.8698 27.1515 12.8698L22.9931 14.4949C21.7531 14.9235 20.9297 15.5581 20.857 16.3573C20.7626 17.4229 21.7192 18.2439 23.0754 17.3188Z" fill="#F4B400"/>
</svg>
