<svg width="50" height="50" viewBox="0 0 50 50" fill="none" xmlns="http://www.w3.org/2000/svg">
<path fill-rule="evenodd" clip-rule="evenodd" d="M19.5988 3.2452C20.2788 2.48575 21.1113 1.87824 22.042 1.46232C22.9727 1.0464 23.9806 0.831421 25 0.831421C26.0194 0.831421 27.0274 1.0464 27.9581 1.46232C28.8888 1.87824 29.7213 2.48575 30.4013 3.2452L32.093 5.13504C32.3347 5.40548 32.6342 5.61803 32.9693 5.75692C33.3044 5.89581 33.6665 5.95749 34.0287 5.93737L36.5662 5.7972C37.5837 5.74132 38.6016 5.90058 39.5535 6.26459C40.5053 6.6286 41.3697 7.18918 42.0903 7.90977C42.8109 8.63036 43.3715 9.49477 43.7355 10.4466C44.0995 11.3984 44.2588 12.4163 44.2029 13.4339L44.0627 15.9714C44.043 16.3332 44.1048 16.6948 44.2437 17.0294C44.3826 17.3641 44.5949 17.6632 44.865 17.9047L46.7573 19.5964C47.5171 20.2764 48.125 21.109 48.5412 22.04C48.9573 22.9709 49.1724 23.9791 49.1724 24.9988C49.1724 26.0185 48.9573 27.0268 48.5412 27.9577C48.125 28.8886 47.5171 29.7213 46.7573 30.4013L44.865 32.093C44.5946 32.3347 44.3821 32.6342 44.2432 32.9693C44.1043 33.3044 44.0426 33.6665 44.0627 34.0287L44.2029 36.5662C44.2588 37.5837 44.0995 38.6016 43.7355 39.5535C43.3715 40.5053 42.8109 41.3697 42.0903 42.0903C41.3697 42.8109 40.5053 43.3715 39.5535 43.7355C38.6016 44.0995 37.5837 44.2588 36.5662 44.2029L34.0287 44.0627C33.6669 44.043 33.3053 44.1048 32.9707 44.2437C32.636 44.3826 32.3369 44.5949 32.0954 44.865L30.4037 46.7573C29.7237 47.5171 28.891 48.125 27.9601 48.5412C27.0292 48.9573 26.021 49.1724 25.0013 49.1724C23.9815 49.1724 22.9733 48.9573 22.0424 48.5412C21.1115 48.125 20.2788 47.5171 19.5988 46.7573L17.9071 44.865C17.6654 44.5946 17.3658 44.382 17.0307 44.2432C16.6956 44.1043 16.3336 44.0426 15.9714 44.0627L13.4339 44.2029C12.4163 44.2588 11.3985 44.0995 10.4466 43.7355C9.49478 43.3715 8.63037 42.8109 7.90978 42.0903C7.18919 41.3697 6.6286 40.5053 6.26459 39.5535C5.90058 38.6016 5.74133 37.5837 5.79721 36.5662L5.93738 34.0287C5.95713 33.6669 5.89527 33.3053 5.75639 32.9707C5.61751 32.636 5.40516 32.3369 5.13504 32.0954L3.24521 30.4037C2.48536 29.7237 1.8775 28.891 1.46134 27.9601C1.04518 27.0292 0.830078 26.021 0.830078 25.0012C0.830078 23.9815 1.04518 22.9733 1.46134 22.0424C1.8775 21.1115 2.48536 20.2788 3.24521 19.5988L5.13504 17.9071C5.40548 17.6654 5.61803 17.3658 5.75693 17.0307C5.89582 16.6956 5.95749 16.3336 5.93738 15.9714L5.79721 13.4339C5.74133 12.4163 5.90058 11.3984 6.26459 10.4466C6.6286 9.49477 7.18919 8.63036 7.90978 7.90977C8.63037 7.18918 9.49478 6.6286 10.4466 6.26459C11.3985 5.90058 12.4163 5.74132 13.4339 5.7972L15.9714 5.93737C16.3332 5.95712 16.6948 5.89526 17.0294 5.75638C17.3641 5.6175 17.6632 5.40515 17.9047 5.13504L19.5964 3.2452H19.5988ZM33.9586 16.0415C34.4117 16.4946 34.6662 17.1092 34.6662 17.75C34.6662 18.3909 34.4117 19.0054 33.9586 19.4586L19.4586 33.9586C19.0028 34.3988 18.3924 34.6424 17.7587 34.6369C17.1251 34.6314 16.519 34.3773 16.0709 33.9292C15.6228 33.4811 15.3687 32.875 15.3632 32.2413C15.3577 31.6077 15.6012 30.9972 16.0415 30.5415L30.5415 16.0415C30.9946 15.5884 31.6092 15.3339 32.25 15.3339C32.8909 15.3339 33.5054 15.5884 33.9586 16.0415ZM18.9584 15.3334C17.997 15.3334 17.0749 15.7153 16.3951 16.3951C15.7153 17.0749 15.3334 17.997 15.3334 18.9584V18.9825C15.3334 19.9439 15.7153 20.866 16.3951 21.5458C17.0749 22.2256 17.997 22.6075 18.9584 22.6075H18.9825C19.944 22.6075 20.866 22.2256 21.5458 21.5458C22.2256 20.866 22.6075 19.9439 22.6075 18.9825V18.9584C22.6075 17.997 22.2256 17.0749 21.5458 16.3951C20.866 15.7153 19.944 15.3334 18.9825 15.3334H18.9584ZM31.0417 27.4167C30.0803 27.4167 29.1583 27.7986 28.4784 28.4784C27.7986 29.1583 27.4167 30.0803 27.4167 31.0417V31.0659C27.4167 32.0273 27.7986 32.9493 28.4784 33.6291C29.1583 34.309 30.0803 34.6909 31.0417 34.6909H31.0659C32.0273 34.6909 32.9493 34.309 33.6291 33.6291C34.309 32.9493 34.6909 32.0273 34.6909 31.0659V31.0417C34.6909 30.0803 34.309 29.1583 33.6291 28.4784C32.9493 27.7986 32.0273 27.4167 31.0659 27.4167H31.0417Z" fill="#903292"/>
</svg>
