<svg width="35" height="35" viewBox="0 0 35 35" fill="none" xmlns="http://www.w3.org/2000/svg">
<path d="M31.6193 34.4523L20.483 23.3001C19.4886 24.0967 18.3452 24.7274 17.0526 25.192C15.7599 25.6567 14.3845 25.889 12.9261 25.889C9.31345 25.889 6.25625 24.6358 3.75455 22.1292C1.25284 19.6226 0.00132576 16.561 0 12.9445C0 9.3267 1.25152 6.26515 3.75455 3.75989C6.25758 1.25462 9.31477 0.00132764 12.9261 0C16.5388 0 19.596 1.2533 22.0977 3.75989C24.5994 6.26648 25.8509 9.32802 25.8523 12.9445C25.8523 14.4049 25.6203 15.7824 25.1562 17.0768C24.6922 18.3713 24.0625 19.5164 23.267 20.5121L34.4531 31.7141C34.8177 32.0792 35 32.5273 35 33.0583C35 33.5894 34.8011 34.0541 34.4034 34.4523C34.0388 34.8174 33.5748 35 33.0114 35C32.4479 35 31.9839 34.8174 31.6193 34.4523ZM12.9261 21.9061C15.4119 21.9061 17.5252 21.0345 19.2659 19.2913C21.0066 17.5481 21.8763 15.4325 21.875 12.9445C21.875 10.4552 21.0046 8.33893 19.2639 6.59573C17.5232 4.85254 15.4106 3.9816 12.9261 3.98293C10.4403 3.98293 8.32708 4.85453 6.58636 6.59772C4.84564 8.34092 3.97595 10.4565 3.97727 12.9445C3.97727 15.4339 4.84763 17.5501 6.58835 19.2933C8.32907 21.0365 10.4417 21.9074 12.9261 21.9061Z" fill="white"/>
</svg>
